<!DOCTYPE svg PUBLIC "-//W3C//DTD SVG 20010904//EN" "http://www.w3.org/TR/2001/REC-SVG-20010904/DTD/svg10.dtd">
<svg version="1.0" xmlns="http://www.w3.org/2000/svg" width="626px" height="500px" viewBox="0 0 6260 5000" preserveAspectRatio="xMidYMid meet">
<g id="layer101" fill="#005218" stroke="none">
<path d="M0 2500 l0 -2500 3130 0 3130 0 0 2500 0 2500 -3130 0 -3130 0 0 -2500z"/>
</g>
<g id="layer102" fill="#298728" stroke="none">
<path d="M5090 2893 c-36 -2 -69 -8 -73 -12 -5 -5 -6 -44 -2 -86 l8 -78 66 8 c36 4 84 8 106 9 22 1 46 6 54 11 8 4 34 8 58 8 l43 0 0 41 c0 23 -9 55 -20 74 l-20 32 -77 -2 c-43 -1 -107 -3 -143 -5z"/>
<path d="M5366 2868 c4 -18 15 -51 26 -72 11 -22 17 -48 15 -58 -8 -29 11 -21 28 12 11 20 15 50 13 88 l-3 57 -42 3 -43 3 6 -33z"/>
<path d="M5480 2878 c0 -13 7 -45 15 -73 21 -67 5 -349 -20 -374 -13 -14 -43 -16 -200 -14 -131 2 -207 -2 -262 -12 -43 -8 -99 -15 -125 -15 -36 0 -50 -5 -61 -20 -8 -12 -18 -20 -23 -18 -14 4 -52 -24 -50 -36 2 -6 1 -8 -1 -3 -3 4 -11 7 -19 7 -9 0 -12 5 -9 10 3 6 0 10 -7 10 -8 0 -7 4 4 11 16 9 15 12 -7 47 -13 20 -34 50 -46 66 -33 42 -17 59 66 71 l68 10 28 60 c16 33 42 71 58 85 19 16 32 39 36 65 9 52 11 113 4 120 -15 15 -1294 -176 -1314 -196 -2 -3 2 -31 9 -63 14 -60 11 -242 -5 -267 -5 -9 -46 -13 -146 -14 -179 -1 -258 -12 -310 -42 -23 -14 -48 -21 -54 -18 -8 6 -8 10 1 15 10 6 5 20 -19 55 -17 25 -29 50 -26 55 3 4 27 11 54 15 43 6 51 11 62 37 7 17 22 42 34 57 20 25 49 101 41 109 -3 2 -71 -7 -152 -20 l-148 -23 -9 -43 c-12 -62 15 -167 52 -198 16 -13 42 -52 59 -87 l30 -64 58 -8 c110 -13 132 -36 84 -85 -17 -17 -30 -36 -30 -43 0 -7 -10 -24 -22 -37 -21 -22 -21 -23 -3 -36 11 -8 13 -14 6 -14 -7 0 -9 -4 -6 -10 11 -17 -31 -11 -56 9 -13 10 -29 16 -36 14 -6 -2 -17 5 -23 16 -8 16 -21 21 -53 21 -23 0 -78 7 -122 17 -59 12 -137 16 -297 17 -190 1 -219 3 -234 18 -14 14 -19 45 -25 162 -4 79 -10 149 -13 154 -3 5 1 33 10 62 8 28 14 54 11 56 -2 2 -73 -1 -158 -7 -146 -11 -537 -6 -586 7 -30 8 -37 -22 -18 -76 8 -23 15 -55 15 -70 0 -20 9 -34 35 -51 21 -15 44 -45 60 -79 52 -113 42 -104 134 -115 62 -8 87 -16 97 -30 20 -27 17 -42 -10 -60 -13 -9 -31 -34 -40 -55 -8 -21 -20 -41 -25 -44 -6 -4 -7 -14 -4 -23 5 -12 3 -14 -7 -8 -9 5 -11 4 -6 -3 4 -7 14 -12 22 -12 8 0 12 -5 9 -10 -4 -6 -12 -7 -18 -3 -7 4 -5 -1 3 -11 14 -18 13 -18 -20 -11 -19 4 -44 15 -55 25 -11 10 -25 16 -32 13 -6 -2 -17 5 -25 15 -10 15 -34 23 -98 31 -47 6 -123 18 -169 26 -61 11 -141 14 -305 12 -246 -2 -262 1 -270 56 -3 17 -11 109 -16 202 -10 158 -10 175 8 235 11 36 22 85 25 110 l6 45 -132 34 c-232 58 -547 159 -739 236 -17 7 -18 -65 -18 -1434 l0 -1441 3130 0 3130 0 0 1409 0 1409 -67 11 c-153 25 -391 50 -625 66 -87 6 -88 6 -88 -17z"/>
<path d="M4968 2835 c2 -19 6 -35 8 -35 2 0 4 16 4 35 0 19 -4 35 -8 35 -4 0 -6 -16 -4 -35z"/>
<path d="M5470 2630 c0 -38 4 -59 10 -55 6 3 10 28 10 55 0 27 -4 52 -10 55 -6 4 -10 -17 -10 -55z"/>
<path d="M3542 2633 c5 -21 14 -42 19 -47 5 -6 9 -19 9 -30 0 -20 0 -20 15 0 15 20 20 70 9 98 -4 9 -18 16 -34 16 -28 0 -28 -1 -18 -37z"/>
<path d="M3390 2645 c-36 -7 -68 -13 -72 -14 -5 -1 -8 -21 -8 -46 0 -53 -5 -51 131 -33 l89 12 0 30 c-1 66 -22 73 -140 51z"/>
<path d="M933 2571 c-8 -12 -13 -53 -13 -96 0 -65 4 -82 25 -113 l25 -37 0 32 c0 18 9 52 19 75 19 42 52 141 48 144 -1 1 -22 5 -47 9 -39 5 -47 3 -57 -14z"/>
<path d="M1071 2534 c-28 -35 -35 -65 -28 -120 6 -54 30 -84 69 -84 37 0 96 25 126 53 l23 21 5 -21 c6 -21 40 -34 129 -47 60 -9 68 1 73 91 l4 78 -158 24 c-88 13 -173 26 -190 28 -25 4 -35 -1 -53 -23z"/>
<path d="M2665 2537 c-88 -11 -163 -25 -168 -31 -4 -6 -6 -31 -5 -56 l3 -44 48 3 c26 1 53 -2 60 -7 7 -5 39 -12 72 -16 33 -3 85 -8 116 -12 l56 -6 6 38 c4 22 7 65 7 97 0 48 -3 57 -17 56 -10 -1 -90 -11 -178 -22z"/>
<path d="M2895 2509 c-4 -18 -3 -35 4 -42 8 -8 11 0 11 31 0 50 -6 54 -15 11z"/>
<path d="M2387 2503 c-14 -14 -6 -67 15 -102 l23 -36 6 35 c3 19 13 49 22 67 9 18 17 34 17 38 0 7 -75 6 -83 -2z"/>
<path d="M3613 2475 c0 -22 2 -30 4 -17 2 12 2 30 0 40 -3 9 -5 -1 -4 -23z"/>
<path d="M1510 2469 c0 -17 4 -28 10 -24 6 3 10 17 10 31 0 13 -4 24 -10 24 -5 0 -10 -14 -10 -31z"/>
<path d="M2347 2333 c-11 -10 -8 -111 3 -118 6 -4 10 18 10 59 0 66 -1 72 -13 59z"/>
<path d="M870 2213 c0 -60 3 -83 10 -73 13 20 13 147 0 155 -6 4 -10 -26 -10 -82z"/>
</g>
<g id="layer103" fill="#65b64b" stroke="none">
<path d="M5090 2323 c-320 -22 -514 -53 -948 -149 -386 -85 -410 -88 -680 -89 l-244 0 -19 -39 c-11 -22 -25 -44 -32 -48 -9 -6 -7 -12 7 -23 11 -8 14 -15 7 -15 -7 0 -9 -4 -6 -10 11 -17 -31 -11 -56 9 -13 10 -29 16 -36 14 -6 -2 -17 5 -23 16 -8 16 -21 21 -53 21 -23 0 -78 7 -122 17 -59 12 -137 16 -297 17 -251 1 -244 -1 -256 91 l-7 60 -100 12 c-170 22 -533 63 -549 63 -12 0 -11 -9 10 -52 52 -111 41 -102 133 -113 62 -8 87 -16 97 -30 20 -27 17 -42 -10 -60 -13 -9 -31 -34 -40 -55 -8 -21 -20 -41 -25 -44 -6 -4 -7 -14 -4 -23 5 -12 3 -14 -7 -8 -9 5 -11 4 -6 -3 4 -7 14 -12 22 -12 8 0 12 -5 9 -10 -4 -6 -12 -7 -18 -3 -7 4 -5 -1 3 -11 14 -18 13 -18 -20 -11 -19 4 -44 15 -55 25 -11 10 -25 16 -32 13 -6 -2 -17 5 -25 15 -10 15 -34 23 -98 31 -47 6 -123 18 -170 27 -68 12 -121 14 -266 9 -185 -7 -261 -2 -289 19 -9 6 -19 31 -22 54 -3 23 -7 42 -9 42 -2 0 -27 -11 -55 -25 -49 -23 -76 -25 -64 -4 4 5 1 9 -4 9 -6 0 -11 -15 -11 -33 0 -46 -39 -118 -79 -144 -64 -43 -140 -42 -206 2 -35 24 -37 25 -60 8 -15 -11 -24 -28 -25 -45 0 -15 -11 -39 -23 -54 -28 -32 -76 -37 -106 -10 -18 16 -21 17 -45 1 -26 -17 -121 -18 -159 -1 -16 8 -17 -38 -17 -883 l0 -891 3130 0 3130 0 0 1085 0 1085 -34 0 c-19 0 -45 -9 -60 -21 -15 -12 -41 -22 -59 -23 -23 -1 -37 -9 -52 -30 -66 -96 -189 -95 -235 1 -14 29 -18 31 -55 26 -53 -6 -92 10 -113 47 -12 21 -25 30 -43 30 -36 0 -69 39 -69 82 l0 35 -82 6 c-81 7 -279 7 -368 0z"/>
</g>
<g id="layer104" fill="#7dc266" stroke="none">
<path d="M6166 2149 c-15 -12 -41 -22 -59 -23 -23 -1 -37 -9 -52 -30 -48 -70 -125 -91 -191 -52 -28 17 -33 17 -114 -4 -169 -42 -160 -39 -160 -66 0 -14 5 -35 11 -47 9 -18 9 -20 -1 -10 -10 9 -19 7 -41 -10 -39 -28 -40 -77 -3 -106 39 -30 54 -66 54 -125 0 -59 -26 -110 -65 -128 -14 -6 -25 -19 -25 -28 0 -40 -34 -111 -66 -140 -72 -63 -167 -23 -196 84 -14 54 -37 62 -39 14 l-1 -33 -8 30 c-4 17 -8 22 -9 13 0 -9 -5 -20 -11 -23 -7 -4 -7 3 0 20 15 40 13 45 -20 45 -34 0 -39 -13 -12 -30 16 -11 16 -11 -1 -6 -16 5 -17 -4 -16 -110 1 -110 2 -116 21 -111 10 3 34 -1 51 -8 18 -8 25 -14 16 -15 -29 0 -47 -25 -53 -75 -6 -44 -5 -48 7 -32 8 9 19 17 25 17 23 0 22 -23 -3 -65 -17 -30 -22 -45 -13 -45 18 0 40 38 32 52 -5 7 -2 9 9 5 10 -4 20 0 25 9 8 14 10 14 21 0 11 -13 11 -19 1 -31 -15 -18 -6 -30 23 -30 13 0 23 -7 25 -17 2 -11 -3 -18 -12 -18 -9 0 -16 -5 -16 -11 0 -6 8 -8 19 -4 29 9 176 34 179 30 2 -2 -2 -13 -8 -25 -12 -22 -10 -59 4 -92 9 -19 -6 -18 -131 6 -65 13 -74 11 -47 -8 22 -17 8 -49 -16 -36 -21 11 -35 -11 -18 -28 8 -8 8 -15 -1 -25 -9 -12 -17 -12 -35 -4 -14 7 -22 15 -19 20 6 9 -25 47 -39 47 -5 0 3 -21 17 -47 30 -58 31 -63 5 -63 -11 0 -20 5 -20 10 0 6 -8 10 -19 10 -12 0 -18 -7 -17 -17 0 -10 -7 -19 -16 -21 -12 -2 -18 3 -18 16 0 28 -30 38 -37 12 -4 -16 -9 -18 -24 -10 -20 11 -17 28 14 73 10 16 16 31 13 34 -9 9 -47 -29 -43 -42 3 -6 -6 -16 -19 -22 -18 -8 -26 -8 -36 4 -9 11 -9 16 2 23 7 5 10 15 6 25 -5 14 -3 15 6 7 10 -7 20 -5 37 9 35 29 20 32 -34 9 -38 -16 -50 -18 -56 -8 -5 8 -3 17 6 24 21 16 19 34 -5 34 -13 0 -20 7 -20 20 0 13 7 20 20 20 23 0 27 25 5 34 -22 8 -7 39 16 33 24 -6 34 10 19 28 -10 12 -10 18 0 30 12 14 15 14 31 -1 17 -15 19 -15 25 -1 3 9 3 21 -1 27 -12 19 25 23 41 4 14 -18 15 -17 10 15 -3 18 -6 44 -6 57 0 20 -5 24 -30 24 -36 0 -39 17 -5 30 16 6 25 18 26 32 1 22 1 22 8 -2 4 -14 15 -26 24 -28 15 -3 17 9 17 126 l0 130 -36 0 c-25 0 -33 -3 -23 -9 12 -7 12 -9 0 -9 -11 0 -11 -3 0 -17 8 -9 9 -14 2 -10 -6 4 -14 1 -16 -5 -3 -7 -6 -2 -6 11 -1 16 -5 21 -10 15 -8 -7 -31 -159 -31 -201 0 -8 -27 -13 -87 -15 l-88 -3 3 -33 3 -32 -53 0 -54 0 4 35 4 35 -250 0 -250 0 -11 88 c-6 48 -15 111 -20 141 -7 48 -6 54 10 58 17 5 19 18 19 150 l0 144 -27 -20 c-14 -12 -44 -24 -65 -27 -30 -5 -42 -14 -54 -36 -20 -39 -93 -72 -137 -62 -43 9 -76 32 -98 68 -16 27 -23 30 -63 27 -90 -5 -133 59 -105 158 3 12 -36 19 -211 37 -118 12 -230 25 -247 28 -18 2 -33 1 -33 -3 0 -4 -10 -18 -22 -31 -21 -22 -21 -23 -3 -36 11 -8 13 -14 6 -14 -7 0 -9 -4 -6 -10 11 -17 -31 -11 -56 9 -13 10 -29 16 -36 14 -6 -2 -17 5 -23 16 -8 16 -21 21 -49 21 -22 0 -91 9 -155 20 -96 16 -144 19 -288 14 -187 -6 -220 0 -226 44 -3 22 -6 22 -155 22 -84 0 -182 -3 -218 -6 l-67 -7 17 -29 c16 -28 15 -30 -11 -51 -15 -12 -34 -39 -42 -59 -9 -20 -20 -39 -25 -43 -6 -3 -7 -13 -4 -22 5 -12 3 -14 -7 -8 -9 5 -11 4 -6 -3 4 -7 14 -12 22 -12 8 0 12 -5 9 -10 -4 -6 -12 -7 -18 -3 -7 4 -5 -1 3 -11 14 -18 13 -18 -20 -11 -19 4 -44 15 -55 25 -11 10 -25 16 -32 13 -6 -2 -17 5 -25 15 -10 15 -34 23 -98 31 -47 6 -123 18 -169 26 -61 11 -141 14 -305 12 -179 -2 -226 1 -246 13 -23 13 -161 53 -165 47 -1 -1 -7 -21 -13 -43 -7 -23 -22 -54 -34 -69 -26 -33 -91 -64 -136 -65 -37 0 -97 23 -123 46 -16 14 -20 14 -43 -3 -16 -11 -25 -28 -26 -45 0 -15 -11 -39 -23 -54 -28 -32 -76 -37 -106 -10 -18 16 -21 17 -45 1 -26 -17 -121 -18 -158 -1 -17 8 -18 -38 -18 -883 l0 -891 3130 0 3130 0 0 1085 0 1085 -34 0 c-19 0 -45 -9 -60 -21z m-566 -313 c0 -2 -8 -10 -17 -17 -16 -13 -17 -12 -4 4 13 16 21 21 21 13z m-1423 -333 c-4 -3 -10 -3 -14 0 -3 4 0 7 7 7 7 0 10 -3 7 -7z m908 -155 c4 -10 3 -18 -3 -18 -12 0 -22 50 -21 99 1 32 2 31 9 -14 4 -27 11 -58 15 -67z m86 79 c-10 -9 -11 -8 -5 6 3 10 9 15 12 12 3 -3 0 -11 -7 -18z m39 -12 c0 -14 -4 -25 -9 -25 -4 0 -6 11 -3 25 2 14 6 25 8 25 2 0 4 -11 4 -25z m-53 -22 c-4 -3 -7 0 -7 7 0 7 3 10 7 7 3 -4 3 -10 0 -14z m40 -55 c-3 -7 -5 -2 -5 12 0 14 2 19 5 13 2 -7 2 -19 0 -25z m-10 -45 c-4 -3 -7 0 -7 7 0 7 3 10 7 7 3 -4 3 -10 0 -14z"/>
<path d="M3950 2009 c0 -5 5 -7 10 -4 6 3 10 8 10 11 0 2 -4 4 -10 4 -5 0 -10 -5 -10 -11z"/>
<path d="M3990 2010 c0 -5 11 -10 24 -10 14 0 28 5 31 10 4 6 -7 10 -24 10 -17 0 -31 -4 -31 -10z"/>
<path d="M4070 2010 c0 -5 11 -10 24 -10 14 0 28 5 31 10 4 6 -7 10 -24 10 -17 0 -31 -4 -31 -10z"/>
<path d="M4150 2010 c0 -5 11 -10 25 -10 14 0 25 5 25 10 0 6 -11 10 -25 10 -14 0 -25 -4 -25 -10z"/>
<path d="M4230 2005 c12 -14 12 -18 0 -25 -11 -7 -11 -11 -1 -24 11 -13 10 -18 -2 -31 -9 -8 -18 -11 -21 -6 -3 5 -47 8 -97 8 -79 0 -88 -2 -67 -13 13 -7 37 -13 55 -14 17 0 35 -4 38 -10 3 -5 23 -10 43 -10 31 0 45 9 85 50 61 61 60 84 -2 88 -40 3 -43 2 -31 -13z"/>
<path d="M5062 2004 c-10 -18 -4 -54 9 -54 13 0 18 15 9 30 -5 9 -5 19 2 27 7 9 7 13 0 13 -6 0 -15 -7 -20 -16z"/>
<path d="M5110 2010 c0 -5 11 -10 24 -10 14 0 28 5 31 10 4 6 -7 10 -24 10 -17 0 -31 -4 -31 -10z"/>
<path d="M5190 2010 c0 -5 11 -10 24 -10 14 0 28 5 31 10 4 6 -7 10 -24 10 -17 0 -31 -4 -31 -10z"/>
<path d="M5270 2010 c0 -5 11 -10 24 -10 14 0 28 5 31 10 4 6 -7 10 -24 10 -17 0 -31 -4 -31 -10z"/>
<path d="M5350 2010 c0 -5 11 -10 24 -10 14 0 28 5 31 10 4 6 -7 10 -24 10 -17 0 -31 -4 -31 -10z"/>
<path d="M5434 2003 c4 -9 1 -20 -6 -24 -9 -6 -9 -11 2 -24 22 -26 2 -31 -122 -29 -65 1 -118 -2 -125 -8 -9 -7 -13 -7 -13 1 0 6 -14 10 -32 10 -22 -1 -26 -3 -13 -6 11 -3 25 -14 32 -23 16 -23 74 -43 97 -34 9 3 27 -1 41 -10 13 -9 33 -16 45 -16 11 0 20 -3 20 -7 -1 -16 -36 -51 -66 -66 -29 -15 -32 -22 -43 -92 -13 -77 -9 -118 4 -49 5 27 22 52 61 90 45 45 54 59 54 89 0 24 5 35 14 35 11 0 16 -14 18 -47 4 -58 25 -67 51 -22 9 17 26 33 37 36 16 4 20 14 20 44 0 49 -15 57 -49 25 -37 -35 -44 -33 -20 8 11 19 33 39 48 46 32 13 45 44 30 72 -14 25 -95 27 -85 1z"/>
<path d="M3950 1970 c0 -5 5 -10 10 -10 6 0 10 5 10 10 0 6 -4 10 -10 10 -5 0 -10 -4 -10 -10z"/>
<path d="M3990 1965 c0 -9 9 -15 24 -15 13 0 26 7 30 15 4 11 -2 15 -24 15 -20 0 -30 -5 -30 -15z"/>
<path d="M4070 1965 c0 -9 9 -15 24 -15 13 0 26 7 30 15 4 11 -2 15 -24 15 -20 0 -30 -5 -30 -15z"/>
<path d="M4150 1965 c0 -9 9 -15 24 -15 13 0 26 7 30 15 4 11 -2 15 -24 15 -20 0 -30 -5 -30 -15z"/>
<path d="M5110 1965 c0 -9 9 -15 24 -15 13 0 26 7 30 15 4 11 -2 15 -24 15 -20 0 -30 -5 -30 -15z"/>
<path d="M5190 1965 c0 -9 9 -15 24 -15 13 0 26 7 30 15 4 11 -2 15 -24 15 -20 0 -30 -5 -30 -15z"/>
<path d="M5270 1965 c0 -9 9 -15 24 -15 13 0 26 7 30 15 4 11 -2 15 -24 15 -20 0 -30 -5 -30 -15z"/>
<path d="M5350 1965 c0 -9 9 -15 25 -15 16 0 25 6 25 15 0 9 -9 15 -25 15 -16 0 -25 -6 -25 -15z"/>
<path d="M5010 1837 c0 -5 5 -5 10 -2 6 3 10 1 10 -4 0 -6 18 -11 40 -11 25 0 40 5 40 13 0 8 -17 12 -50 12 -27 0 -50 -4 -50 -8z"/>
<path d="M5020 1787 c0 -8 7 -58 15 -113 8 -54 15 -106 16 -114 0 -8 7 9 15 39 14 53 14 56 -11 109 -14 30 -24 59 -22 65 2 6 12 -12 22 -41 17 -48 35 -68 35 -40 0 6 2 9 5 6 3 -2 -2 -30 -10 -62 -21 -81 -20 -88 13 -84 l27 3 3 93 c2 59 -1 92 -8 92 -5 0 -10 -8 -11 -17 0 -12 -2 -13 -6 -5 -7 19 6 64 17 57 6 -3 7 1 4 9 -8 21 -104 23 -104 3z"/>
<path d="M5142 1675 l1 -120 18 40 c9 22 18 47 19 55 0 8 8 24 17 35 l16 20 -8 -20 c-10 -24 -10 -47 -2 -95 6 -33 6 -33 -4 4 l-12 39 -13 -33 c-20 -45 -18 -52 14 -48 25 3 28 8 38 68 6 36 13 80 17 99 6 27 4 32 -8 27 -8 -3 -15 -2 -15 2 0 4 -14 13 -31 19 l-30 12 5 -32 c4 -27 3 -26 -9 8 -13 38 -14 35 -13 -80z m75 38 c-4 -3 -7 0 -7 7 0 7 3 10 7 7 3 -4 3 -10 0 -14z m-40 -30 c-4 -3 -7 0 -7 7 0 7 3 10 7 7 3 -4 3 -10 0 -14z"/>
<path d="M5011 1648 c0 -40 3 -68 9 -68 12 0 12 27 1 90 -8 44 -9 44 -10 -22z"/>
<path d="M5232 1550 c0 -14 2 -19 5 -12 2 6 2 18 0 25 -3 6 -5 1 -5 -13z"/>
<path d="M5083 950 c-13 -5 -23 -14 -23 -19 0 -14 29 -41 45 -41 12 0 12 -5 0 -34 -10 -24 -11 -37 -4 -41 17 -11 20 -1 22 70 2 71 -3 80 -40 65z"/>
</g>
<g id="layer105" fill="#cae6bf" stroke="none">
<path d="M6166 2149 c-15 -12 -41 -22 -59 -23 -23 -1 -37 -9 -52 -30 -48 -70 -125 -91 -191 -52 -28 17 -33 17 -114 -4 -179 -45 -163 -37 -156 -76 3 -19 9 -50 12 -70 5 -28 1 -42 -15 -65 l-21 -28 20 -33 c42 -70 17 -191 -45 -220 -14 -6 -25 -19 -25 -28 0 -40 -34 -111 -66 -140 -72 -63 -167 -23 -196 84 -7 25 -17 45 -23 43 -5 -2 -18 -51 -27 -108 -21 -134 -22 -126 7 -133 32 -8 32 -26 1 -26 -30 0 -32 -3 -40 -65 -6 -44 -5 -48 7 -32 8 9 19 17 25 17 23 0 22 -23 -3 -65 -17 -30 -22 -45 -13 -45 18 0 40 38 32 52 -5 7 -2 9 9 5 10 -4 20 0 25 9 8 14 10 14 21 0 11 -13 11 -19 1 -31 -15 -18 -6 -30 23 -30 13 0 23 -7 25 -17 2 -11 -3 -18 -12 -18 -9 0 -16 -5 -16 -11 0 -6 8 -8 19 -4 29 9 176 34 179 30 2 -2 -2 -13 -8 -25 -12 -22 -10 -59 4 -92 9 -19 -6 -18 -131 6 -65 13 -74 11 -47 -8 22 -17 8 -49 -16 -36 -21 11 -35 -11 -18 -28 8 -8 8 -15 -1 -25 -9 -12 -17 -12 -35 -4 -14 7 -22 15 -19 20 6 9 -25 47 -39 47 -5 0 3 -21 17 -47 30 -58 31 -63 5 -63 -11 0 -20 5 -20 10 0 6 -8 10 -19 10 -12 0 -18 -7 -17 -17 0 -10 -7 -19 -16 -21 -12 -2 -18 3 -18 16 0 28 -30 38 -37 12 -4 -16 -9 -18 -24 -10 -20 11 -17 28 14 73 10 16 16 31 13 34 -9 9 -47 -29 -43 -42 3 -6 -6 -16 -19 -22 -18 -8 -26 -8 -36 4 -9 11 -9 16 2 23 19 12 5 39 -18 33 -23 -6 -39 25 -17 33 22 9 18 34 -5 34 -13 0 -20 7 -20 20 0 13 7 20 20 20 23 0 27 25 5 34 -22 8 -7 39 16 33 24 -6 34 10 19 28 -10 12 -10 18 0 30 12 14 15 14 31 -1 17 -15 19 -15 25 -1 3 9 3 21 -1 27 -12 19 25 23 41 4 14 -18 15 -17 10 15 -3 18 -6 44 -6 57 0 20 -5 24 -30 24 -37 0 -39 17 -5 30 24 9 25 13 19 47 -4 21 -12 74 -19 118 -14 89 -17 84 -36 -57 l-12 -87 -86 -3 -86 -3 3 -33 3 -32 -53 0 -54 0 4 35 4 35 -250 0 -250 0 -11 83 c-21 149 -21 148 -41 137 -30 -16 -103 -11 -140 9 l-35 18 -39 -26 c-57 -38 -139 -37 -191 3 -51 39 -75 82 -75 136 0 46 0 46 -32 42 -42 -5 -99 33 -113 73 -9 27 -14 30 -48 27 -31 -3 -42 2 -64 26 -22 26 -31 29 -63 25 -20 -3 -46 -1 -56 4 -12 7 -55 5 -124 -3 -353 -44 -833 -61 -1015 -36 -371 50 -365 49 -353 34 11 -13 8 -14 -22 -7 -19 4 -44 15 -55 25 -11 10 -25 16 -32 13 -6 -2 -17 5 -25 15 -10 15 -34 23 -98 31 -47 6 -123 18 -169 26 -61 11 -141 14 -305 12 -179 -2 -226 1 -246 13 -23 13 -161 53 -165 47 -1 -1 -7 -21 -13 -43 -7 -23 -22 -54 -34 -69 -26 -33 -91 -64 -136 -65 -37 0 -97 23 -123 46 -16 14 -20 14 -43 -3 -16 -11 -25 -28 -26 -45 0 -15 -11 -39 -23 -54 -28 -32 -76 -37 -106 -10 -18 16 -21 17 -45 1 -26 -17 -121 -18 -158 -1 -17 8 -18 -38 -18 -883 l0 -891 3130 0 3130 0 0 1085 0 1085 -34 0 c-19 0 -45 -9 -60 -21z"/>
<path d="M5070 1463 c-1 -36 24 -169 34 -175 19 -13 26 -9 26 15 0 18 -2 19 -10 7 -13 -20 -13 -7 1 23 9 20 6 34 -20 83 -16 32 -30 54 -31 47z"/>
<path d="M5166 1411 c-24 -49 -26 -61 -16 -81 8 -15 8 -20 1 -16 -7 4 -11 -1 -11 -13 0 -13 6 -19 19 -18 15 1 21 11 25 42 14 100 18 145 14 145 -2 0 -17 -26 -32 -59z"/>
<path d="M5083 950 c-13 -5 -23 -13 -23 -18 0 -12 34 -42 48 -42 7 0 6 -11 -3 -34 -10 -24 -11 -37 -4 -41 17 -11 20 -1 22 70 2 71 -3 80 -40 65z"/>
<path d="M5023 908 c-23 -11 -29 -23 -15 -31 7 -5 52 27 52 37 0 8 -11 6 -37 -6z"/>
</g>
<g id="layer106" fill="#fefefd" stroke="none">
<path d="M5945 1979 c-137 -15 -271 -28 -297 -28 l-48 -1 7 -46 c5 -37 2 -50 -16 -74 l-21 -29 20 -33 c42 -70 17 -191 -45 -220 -14 -6 -25 -19 -25 -28 0 -40 -34 -111 -66 -140 -72 -63 -167 -23 -196 84 -22 83 -38 49 -53 -116 -7 -74 -6 -76 16 -80 35 -5 36 -28 0 -28 -36 0 -37 -1 -45 -65 -6 -44 -5 -48 7 -32 8 9 19 17 25 17 23 0 22 -23 -3 -65 -17 -30 -22 -45 -13 -45 18 0 40 38 32 52 -5 7 -2 9 9 5 10 -4 20 0 25 9 8 14 10 14 21 0 11 -13 11 -19 1 -31 -15 -18 -6 -30 23 -30 13 0 23 -7 25 -17 2 -11 -3 -18 -12 -18 -9 0 -16 -5 -16 -11 0 -6 8 -8 19 -4 29 9 176 34 179 30 2 -2 -2 -13 -8 -25 -12 -22 -10 -59 4 -92 9 -19 -6 -18 -131 6 -65 13 -74 11 -47 -8 22 -17 8 -49 -16 -36 -21 11 -35 -11 -18 -28 8 -8 8 -15 -1 -25 -9 -12 -17 -12 -35 -4 -14 7 -22 15 -19 20 6 9 -25 47 -39 47 -5 0 3 -21 17 -47 30 -58 31 -63 5 -63 -11 0 -20 5 -20 10 0 6 -8 10 -19 10 -12 0 -18 -7 -17 -17 0 -10 -7 -19 -16 -21 -12 -2 -18 3 -18 16 0 28 -30 38 -37 12 -4 -16 -9 -18 -24 -10 -20 11 -17 28 14 73 10 16 16 31 13 34 -9 9 -47 -29 -43 -42 3 -6 -6 -16 -19 -22 -19 -9 -26 -8 -36 5 -10 12 -10 16 0 19 6 3 12 12 12 21 0 8 3 12 7 9 4 -4 19 4 33 18 24 23 28 24 40 10 7 -8 18 -15 26 -15 11 0 10 -6 -1 -34 -10 -24 -11 -37 -4 -41 17 -11 20 -1 22 71 2 68 2 69 -23 66 -14 -1 -30 -8 -35 -15 -15 -18 -68 -53 -92 -61 -27 -8 -42 23 -19 40 22 16 20 34 -4 34 -13 0 -20 7 -20 20 0 13 7 20 20 20 23 0 27 25 5 34 -22 8 -7 39 16 33 24 -6 34 10 19 28 -10 12 -10 18 0 30 12 14 15 14 31 -1 17 -15 19 -15 25 -1 3 9 3 21 -1 27 -12 19 25 23 41 4 14 -18 15 -17 10 15 -3 18 -6 44 -6 57 0 20 -5 24 -30 24 -36 0 -39 17 -5 30 20 8 24 14 19 37 -2 15 -11 69 -18 118 -15 99 -17 95 -37 -47 l-12 -87 -86 -3 -86 -3 3 -32 3 -33 -53 0 -54 0 4 35 4 35 -250 0 -250 0 -11 83 c-21 149 -21 148 -41 137 -30 -16 -103 -11 -140 9 l-35 18 -39 -26 c-57 -38 -139 -37 -191 3 -51 39 -75 82 -75 136 0 46 0 46 -32 42 -42 -5 -99 33 -113 73 -9 26 -14 30 -40 27 -16 -2 -34 -8 -39 -13 -22 -21 -340 0 -415 27 -39 15 -62 15 -220 3 -221 -16 -538 -17 -656 -1 -49 7 -152 20 -227 30 -110 15 -136 16 -127 5 9 -10 4 -13 -24 -13 -19 0 -37 -4 -39 -8 -3 -8 -341 -62 -578 -93 -142 -18 -222 -13 -410 25 -189 39 -348 78 -287 71 20 -2 37 0 37 6 0 5 -11 9 -24 9 -14 0 -36 4 -50 10 -26 9 -38 -3 -13 -13 28 -12 -20 -5 -55 7 -42 15 -48 12 -48 -19 0 -54 -88 -88 -129 -51 -18 16 -21 17 -45 1 -26 -17 -121 -18 -158 -1 -17 8 -18 -38 -18 -883 l0 -891 3130 0 3130 0 0 1005 0 1005 -32 -1 c-18 -1 -145 -14 -283 -30z m-2428 -206 c-4 -3 -10 -3 -14 0 -3 4 0 7 7 7 7 0 10 -3 7 -7z"/>
<path d="M1743 1863 c4 -3 10 -3 14 0 3 4 0 7 -7 7 -7 0 -10 -3 -7 -7z"/>
<path d="M5084 1476 c7 -18 21 -46 29 -62 l16 -29 1 52 c0 48 -2 52 -30 61 l-30 11 14 -33z"/>
<path d="M5140 1438 l1 -53 24 45 c30 57 30 60 0 60 -24 0 -25 -3 -25 -52z"/>
<path d="M5070 1463 c0 -7 5 -47 11 -89 11 -69 13 -75 25 -59 8 10 14 30 14 44 -1 26 -49 127 -50 104z"/>
<path d="M5171 1421 c-24 -57 -26 -80 -8 -105 11 -16 15 -7 26 63 8 45 11 84 9 87 -3 2 -15 -18 -27 -45z"/>
<path d="M5104 1218 c3 -13 6 -29 6 -36 0 -7 5 -10 10 -7 17 11 12 65 -6 65 -12 0 -15 -6 -10 -22z"/>
<path d="M5140 1211 c0 -17 5 -33 10 -36 6 -3 10 0 10 7 0 7 3 23 6 36 5 16 2 22 -10 22 -11 0 -16 -9 -16 -29z"/>
<path d="M5091 1113 c0 -4 4 -17 9 -28 8 -19 9 -19 9 2 1 12 -3 25 -9 28 -5 3 -10 3 -9 -2z"/>
<path d="M5166 1105 c-3 -9 -6 -24 -5 -33 0 -9 5 -4 10 12 9 32 6 48 -5 21z"/>
<path d="M5045 1101 c-7 -12 21 -51 37 -51 13 0 9 13 -11 39 -13 17 -20 20 -26 12z"/>
<path d="M5005 1059 c-9 -13 20 -39 42 -39 10 0 12 -9 7 -35 -7 -39 -8 -39 33 -25 24 9 29 16 30 45 1 19 -4 38 -9 41 -6 4 -7 -2 -3 -17 7 -21 6 -22 -9 -10 -9 8 -19 11 -23 7 -4 -3 -19 5 -34 20 -19 19 -29 22 -34 13z"/>
<path d="M5225 1040 c-11 -13 -14 -20 -6 -20 18 0 51 19 51 30 0 17 -26 11 -45 -10z"/>
<path d="M5155 1040 c-4 -6 -4 -23 0 -38 4 -22 12 -28 35 -30 33 -3 39 12 16 44 -15 19 -15 19 -31 -1 -16 -20 -16 -20 -6 2 11 22 -2 43 -14 23z"/>
<path d="M4980 995 c0 -10 10 -15 30 -15 35 0 40 15 8 24 -34 9 -38 8 -38 -9z"/>
<path d="M5248 1003 c-21 -5 -24 -23 -5 -23 7 0 22 7 33 15 20 15 9 18 -28 8z"/>
<path d="M4990 950 c-8 -5 -11 -12 -8 -16 10 -9 58 4 58 16 0 13 -30 13 -50 0z"/>
<path d="M5144 948 c-3 -5 -2 -38 1 -73 5 -45 12 -65 21 -65 18 0 18 18 0 53 -12 21 -12 27 -2 27 14 0 40 27 48 50 4 11 -3 15 -29 16 -19 0 -36 -3 -39 -8z"/>
<path d="M5230 952 c0 -11 24 -22 48 -22 21 0 5 15 -25 25 -13 3 -23 2 -23 -3z"/>
<path d="M5210 914 c0 -8 43 -43 53 -44 15 0 6 30 -12 40 -22 11 -41 13 -41 4z"/>
</g>


</svg>